<svg width="14" height="7" viewBox="0 0 14 7" fill="none" xmlns="http://www.w3.org/2000/svg">
<path d="M1.64018 0.231779C1.21591 -0.121785 0.585343 -0.0644613 0.231779 0.359816C-0.121785 0.784092 -0.0644613 1.41466 0.359816 1.76822L1.64018 0.231779ZM7 6L6.35982 6.76822C6.73066 7.07726 7.26934 7.07726 7.64018 6.76822L7 6ZM13.6402 1.76822C14.0645 1.41466 14.1218 0.784092 13.7682 0.359816C13.4147 -0.0644613 12.7841 -0.121785 12.3598 0.231779L13.6402 1.76822ZM0.359816 1.76822L6.35982 6.76822L7.64018 5.23178L1.64018 0.231779L0.359816 1.76822ZM7.64018 6.76822L13.6402 1.76822L12.3598 0.231779L6.35982 5.23178L7.64018 6.76822Z" fill="#9CB6C9"/>
</svg>
