<svg width="18" height="11" viewBox="0 0 18 11" fill="none" xmlns="http://www.w3.org/2000/svg">
<path d="M17.1359 5.05861C16.9823 4.85205 13.3209 0 8.63928 0C3.95763 0 0.296213 4.85205 0.142619 5.05861C-0.0475397 5.31433 -0.0475397 5.6645 0.142619 5.92022C0.296213 6.12678 3.95763 10.9788 8.63928 10.9788C13.3209 10.9788 16.9823 6.12678 17.1359 5.92022C17.3261 5.66456 17.3261 5.31433 17.1359 5.05861ZM8.63928 8.38073C7.045 8.38073 5.74797 7.0837 5.74797 5.48941C5.74797 3.89507 7.045 2.59805 8.63928 2.59805C10.2336 2.59805 11.5306 3.89507 11.5306 5.48941C11.5306 7.0837 10.2336 8.38073 8.63928 8.38073Z" fill="#D1DDE6"/>
<path d="M8.63876 6.71747C9.31703 6.71747 9.86688 6.16762 9.86688 5.48935C9.86688 4.81108 9.31703 4.26123 8.63876 4.26123C7.96049 4.26123 7.41064 4.81108 7.41064 5.48935C7.41064 6.16762 7.96049 6.71747 8.63876 6.71747Z" fill="#D1DDE6"/>
</svg>
